<?xml version="1.0" standalone="no"?>
<!DOCTYPE svg PUBLIC "-//W3C//DTD SVG 20010904//EN"
 "http://www.w3.org/TR/2001/REC-SVG-20010904/DTD/svg10.dtd">
<svg version="1.0" xmlns="http://www.w3.org/2000/svg"
 width="64pt" height="64pt" viewBox="0 0 512.000000 512.000000"
 preserveAspectRatio="xMidYMid meet">

<g transform="translate(0.000000,512.000000) scale(0.100000,-0.100000)"
fill="##81c99d" stroke="none">
<path d="M2472 4675 c-248 -59 -442 -302 -442 -551 0 -106 51 -165 149 -172
97 -7 153 49 170 170 11 81 31 125 78 171 49 50 97 70 174 75 87 5 162 -17
229 -67 103 -78 155 -182 153 -311 -2 -160 -82 -304 -217 -392 -115 -74 -90
-72 -773 -78 -598 -5 -612 -5 -639 -26 -53 -39 -69 -71 -69 -134 0 -63 16 -95
69 -134 27 -21 37 -21 654 -21 624 0 627 0 706 23 119 34 244 103 326 179 152
141 233 298 261 508 45 340 -181 669 -517 755 -89 23 -230 25 -312 5z"/>
<path d="M700 4463 c-27 -14 -47 -40 -91 -118 -73 -131 -129 -188 -257 -259
-114 -64 -147 -100 -137 -150 9 -50 29 -70 126 -121 128 -69 195 -135 267
-265 48 -85 66 -109 95 -123 31 -16 42 -17 72 -7 42 14 57 32 115 140 58 110
131 181 245 244 111 60 133 80 141 124 12 61 -14 91 -133 158 -126 70 -198
142 -260 260 -65 122 -112 153 -183 117z"/>
<path d="M4072 3875 c-248 -59 -442 -302 -442 -551 0 -106 51 -165 149 -172
97 -7 153 49 170 170 11 81 31 125 78 171 49 50 97 70 174 75 87 5 162 -17
229 -67 103 -78 155 -182 153 -311 -2 -216 -156 -407 -363 -454 -61 -14 -285
-16 -1977 -16 l-1908 0 -39 -23 c-109 -61 -106 -221 5 -277 38 -20 60 -20
1991 -18 l1953 3 75 23 c117 36 241 105 320 179 152 141 233 298 261 508 45
340 -181 669 -517 755 -89 23 -230 25 -312 5z"/>
<path d="M4319 2115 c-16 -9 -47 -52 -80 -112 -71 -129 -144 -202 -268 -268
-124 -66 -153 -113 -116 -185 10 -19 45 -45 112 -82 129 -70 201 -142 272
-271 58 -107 79 -127 128 -127 59 0 78 18 141 129 77 135 134 191 267 266 80
45 108 65 120 90 8 18 15 38 15 45 0 7 -7 27 -15 45 -12 25 -40 45 -120 90
-131 73 -191 133 -260 255 -30 53 -63 104 -74 114 -26 24 -89 30 -122 11z"/>
<path d="M296 1897 c-109 -61 -106 -221 5 -277 37 -20 65 -20 1304 -20 1111 0
1274 -2 1335 -16 207 -47 361 -238 363 -454 2 -129 -50 -233 -153 -311 -67
-50 -142 -72 -229 -67 -77 5 -125 25 -174 75 -47 46 -67 90 -78 171 -11 78
-32 118 -80 150 -28 20 -44 23 -90 20 -98 -7 -149 -66 -149 -172 0 -206 131
-411 322 -504 99 -48 160 -62 272 -62 306 0 581 216 662 520 27 102 23 272
-10 383 -75 251 -241 436 -480 531 -143 57 -106 56 -1499 56 l-1282 0 -39 -23z"/>
</g>
</svg>
