<?xml version="1.0" standalone="no"?>
<!DOCTYPE svg PUBLIC "-//W3C//DTD SVG 20010904//EN"
 "http://www.w3.org/TR/2001/REC-SVG-20010904/DTD/svg10.dtd">
<svg version="1.0" xmlns="http://www.w3.org/2000/svg"
 width="512.000000pt" height="512.000000pt" viewBox="0 0 512.000000 512.000000"
 preserveAspectRatio="xMidYMid meet">

<g transform="translate(0.000000,512.000000) scale(0.100000,-0.100000)"
fill="#000000" stroke="none">
<path d="M2431 4783 c-12 -10 -88 -106 -169 -213 -169 -223 -238 -288 -377
-355 -191 -92 -291 -100 -634 -50 -353 50 -336 66 -285 -272 30 -197 35 -255
30 -340 -10 -201 -106 -403 -252 -532 -26 -23 -127 -100 -225 -171 -97 -72
-180 -138 -183 -146 -13 -35 -5 -71 21 -96 16 -14 100 -78 188 -143 88 -64
186 -143 219 -174 144 -139 236 -350 236 -546 0 -37 -14 -162 -32 -278 -39
-264 -40 -283 -9 -308 31 -25 60 -24 296 11 110 16 239 30 287 30 223 0 423
-89 581 -260 39 -42 71 -69 76 -64 10 11 381 652 381 658 0 2 -53 5 -117 5
-300 1 -572 114 -789 326 -316 311 -416 737 -274 1175 53 160 137 298 259 421
144 144 317 243 519 296 120 31 345 42 472 24 248 -37 460 -141 631 -311 95
-94 146 -165 206 -285 68 -134 123 -342 123 -461 0 -36 6 -51 34 -81 18 -21
106 -164 196 -318 89 -154 164 -281 165 -283 2 -2 19 27 39 65 64 122 164 218
406 392 63 46 127 95 143 109 26 25 34 61 21 96 -3 8 -88 75 -187 148 -285
207 -371 307 -438 508 -49 146 -49 237 -5 533 38 253 38 262 -8 292 -22 15
-45 13 -277 -20 -343 -50 -447 -41 -634 49 -140 69 -209 133 -377 356 -157
208 -177 230 -213 230 -13 0 -32 -8 -44 -17z"/>
<path d="M2320 3624 c-115 -20 -262 -71 -357 -125 -107 -60 -264 -215 -326
-323 -154 -266 -179 -598 -66 -885 143 -362 503 -593 919 -592 130 1 188 12
208 38 7 10 122 206 255 437 133 230 259 437 279 461 40 45 107 80 178 91 l43
7 -6 56 c-35 324 -277 643 -584 771 -170 71 -371 95 -543 64z"/>
<path d="M3405 2564 c-11 -3 -30 -13 -42 -22 -12 -9 -268 -442 -568 -961 -538
-928 -547 -945 -542 -989 3 -32 13 -53 36 -76 l31 -31 1121 0 1121 0 34 37
c67 74 98 10 -513 1065 -330 569 -556 949 -571 959 -25 17 -75 25 -107 18z
m131 -493 c49 -22 88 -70 103 -126 15 -53 15 -517 0 -570 -7 -25 -27 -56 -54
-81 -114 -110 -303 -60 -344 91 -14 51 -15 507 -1 556 35 125 174 186 296 130z
m-33 -942 c48 -13 102 -61 129 -112 29 -58 23 -159 -14 -214 -54 -82 -174
-115 -266 -73 -107 48 -153 176 -103 285 21 47 80 102 119 111 15 3 32 7 37 9
21 7 61 5 98 -6z"/>
<path d="M3410 1920 c-19 -19 -20 -33 -20 -253 0 -194 3 -236 16 -255 18 -27
45 -28 67 -4 15 16 17 49 17 260 0 238 0 241 -22 256 -29 20 -34 20 -58 -4z"/>
<path d="M3405 964 c-26 -26 -16 -77 18 -88 38 -14 61 2 65 45 5 52 -47 79
-83 43z"/>
</g>
</svg>
