<?xml version="1.0" standalone="no"?>
<!DOCTYPE svg PUBLIC "-//W3C//DTD SVG 20010904//EN"
 "http://www.w3.org/TR/2001/REC-SVG-20010904/DTD/svg10.dtd">
<svg version="1.0" xmlns="http://www.w3.org/2000/svg"
 width="64pt" height="64pt" viewBox="0 0 512.000000 512.000000"
 preserveAspectRatio="xMidYMid meet">

<g transform="translate(0.000000,512.000000) scale(0.100000,-0.100000)"
fill="#87CEEB" stroke="none">
<path d="M610 5088 c0 -18 22 -310 50 -648 27 -338 50 -625 50 -638 0 -19 4
-22 21 -17 12 4 78 18 146 30 69 13 126 25 128 27 3 2 -13 222 -35 489 -22
266 -40 485 -40 487 0 1 734 2 1631 2 l1631 0 -6 -57 c-4 -32 -33 -395 -66
-808 -33 -412 -61 -767 -64 -788 l-4 -38 36 7 c46 7 266 55 269 58 3 3 153
1858 153 1895 l0 31 -1950 0 -1950 0 0 -32z"/>
<path d="M1075 3544 c-103 -14 -323 -58 -332 -68 -5 -4 191 -2468 203 -2553
l5 -43 1609 0 1609 0 5 42 c7 51 156 1898 156 1932 0 23 -2 23 -41 15 -234
-53 -540 -77 -767 -60 -438 32 -718 134 -1048 381 -239 180 -400 260 -627 315
-226 55 -529 70 -772 39z"/>
<path d="M975 538 c3 -24 12 -131 20 -238 8 -107 18 -219 21 -247 l5 -53 1539
0 1539 0 5 52 c3 29 13 141 21 248 8 107 17 214 20 238 l5 42 -1590 0 -1590 0
5 -42z"/>
</g>
</svg>

